<svg id="visual" viewBox="0 0 900 600" width="900" height="600" xmlns="http://www.w3.org/2000/svg" xmlns:xlink="http://www.w3.org/1999/xlink" version="1.1"><rect x="0" y="0" width="900" height="600" fill="#272727"></rect><defs><linearGradient id="grad1_0" x1="33.3%" y1="100%" x2="100%" y2="0%"><stop offset="20%" stop-color="#272727" stop-opacity="1"></stop><stop offset="80%" stop-color="#272727" stop-opacity="1"></stop></linearGradient></defs><defs><linearGradient id="grad2_0" x1="0%" y1="100%" x2="66.7%" y2="0%"><stop offset="20%" stop-color="#272727" stop-opacity="1"></stop><stop offset="80%" stop-color="#272727" stop-opacity="1"></stop></linearGradient></defs><g transform="translate(900, 600)"><path d="M-486.7 0C-437.8 -46.1 -388.8 -92.1 -372.3 -154.2C-355.9 -216.3 -372 -294.5 -344.2 -344.2C-316.3 -393.9 -244.6 -415.2 -179.9 -434.2C-115.2 -453.2 -57.6 -470 0 -486.7L0 0Z" fill="#FFE400"></path></g><g transform="translate(0, 0)"><path d="M486.7 0C430.6 42.6 374.4 85.3 359.4 148.9C344.3 212.5 370.4 297.1 344.2 344.2C318 391.3 239.4 401 173.4 418.5C107.3 436 53.6 461.4 0 486.7L0 0Z" fill="#FFE400"></path></g></svg>