<svg id="visual" viewBox="0 0 900 600" width="900" height="600" xmlns="http://www.w3.org/2000/svg" xmlns:xlink="http://www.w3.org/1999/xlink" version="1.1"><path d="M0 73L60 157L120 109L180 79L240 127L300 145L360 73L420 55L480 97L540 109L600 109L660 127L720 133L780 31L840 79L900 97L900 0L840 0L780 0L720 0L660 0L600 0L540 0L480 0L420 0L360 0L300 0L240 0L180 0L120 0L60 0L0 0Z" fill="#272727"></path><path d="M0 175L60 307L120 265L180 169L240 253L300 283L360 229L420 133L480 229L540 283L600 169L660 385L720 181L780 109L840 181L900 169L900 95L840 77L780 29L720 131L660 125L600 107L540 107L480 95L420 53L360 71L300 143L240 125L180 77L120 107L60 155L0 71Z" fill="#48422b"></path><path d="M0 241L60 367L120 337L180 235L240 271L300 301L360 283L420 157L480 277L540 349L600 199L660 409L720 217L780 151L840 217L900 223L900 167L840 179L780 107L720 179L660 383L600 167L540 281L480 227L420 131L360 227L300 281L240 251L180 167L120 263L60 305L0 173Z" fill="#6b602d"></path><path d="M0 325L60 427L120 355L180 289L240 331L300 367L360 337L420 211L480 337L540 385L600 223L660 451L720 307L780 241L840 283L900 265L900 221L840 215L780 149L720 215L660 407L600 197L540 347L480 275L420 155L360 281L300 299L240 269L180 233L120 335L60 365L0 239Z" fill="#8e7f2d"></path><path d="M0 415L60 463L120 439L180 397L240 445L300 439L360 397L420 247L480 361L540 469L600 301L660 481L720 379L780 313L840 403L900 331L900 263L840 281L780 239L720 305L660 449L600 221L540 383L480 335L420 209L360 335L300 365L240 329L180 287L120 353L60 425L0 323Z" fill="#b29f29"></path><path d="M0 481L60 499L120 517L180 433L240 481L300 499L360 463L420 277L480 415L540 493L600 349L660 529L720 427L780 379L840 427L900 367L900 329L840 401L780 311L720 377L660 479L600 299L540 467L480 359L420 245L360 395L300 437L240 443L180 395L120 437L60 461L0 413Z" fill="#d8c11f"></path><path d="M0 601L60 601L120 601L180 601L240 601L300 601L360 601L420 601L480 601L540 601L600 601L660 601L720 601L780 601L840 601L900 601L900 365L840 425L780 377L720 425L660 527L600 347L540 491L480 413L420 275L360 461L300 497L240 479L180 431L120 515L60 497L0 479Z" fill="#ffe400"></path></svg>